<mxfile host="app.diagrams.net" agent="Mozilla/5.0 (Windows NT 10.0; Win64; x64) AppleWebKit/537.36 (KHTML, like Gecko) Chrome/140.0.0.0 Safari/537.36" version="28.2.5">
  <diagram name="Pagina-1" id="3gq1Pj4rtYNlDScUMoZr">
    <mxGraphModel dx="1426" dy="743" grid="1" gridSize="10" guides="1" tooltips="1" connect="1" arrows="1" fold="1" page="1" pageScale="1" pageWidth="827" pageHeight="1169" math="0" shadow="0">
      <root>
        <mxCell id="0" />
        <mxCell id="1" parent="0" />
        <mxCell id="OmFl2OEedCDSADSCwGC_-1" value="s1" style="sketch=0;points=[[0.5,0,0],[1,0.5,0],[0.5,1,0],[0,0.5,0],[0.145,0.145,0],[0.8555,0.145,0],[0.855,0.8555,0],[0.145,0.855,0]];verticalLabelPosition=bottom;html=1;verticalAlign=top;aspect=fixed;align=center;pointerEvents=1;shape=mxgraph.cisco19.rect;prIcon=router;fillColor=#FAFAFA;strokeColor=#005073;" vertex="1" parent="1">
          <mxGeometry x="190" y="155" width="60" height="60" as="geometry" />
        </mxCell>
        <mxCell id="OmFl2OEedCDSADSCwGC_-3" value="" style="aspect=fixed;sketch=0;html=1;dashed=0;whitespace=wrap;verticalLabelPosition=bottom;verticalAlign=top;fillColor=#2875E2;strokeColor=#ffffff;points=[[0.005,0.63,0],[0.1,0.2,0],[0.9,0.2,0],[0.5,0,0],[0.995,0.63,0],[0.72,0.99,0],[0.5,1,0],[0.28,0.99,0]];shape=mxgraph.kubernetes.icon2;prIcon=control_plane" vertex="1" parent="1">
          <mxGeometry x="359" y="60" width="50" height="48" as="geometry" />
        </mxCell>
        <mxCell id="OmFl2OEedCDSADSCwGC_-4" value="s4" style="sketch=0;points=[[0.5,0,0],[1,0.5,0],[0.5,1,0],[0,0.5,0],[0.145,0.145,0],[0.8555,0.145,0],[0.855,0.8555,0],[0.145,0.855,0]];verticalLabelPosition=bottom;html=1;verticalAlign=top;aspect=fixed;align=center;pointerEvents=1;shape=mxgraph.cisco19.rect;prIcon=router;fillColor=#FAFAFA;strokeColor=#005073;" vertex="1" parent="1">
          <mxGeometry x="520" y="250" width="60" height="60" as="geometry" />
        </mxCell>
        <mxCell id="OmFl2OEedCDSADSCwGC_-6" value="s2" style="sketch=0;points=[[0.5,0,0],[1,0.5,0],[0.5,1,0],[0,0.5,0],[0.145,0.145,0],[0.8555,0.145,0],[0.855,0.8555,0],[0.145,0.855,0]];verticalLabelPosition=bottom;html=1;verticalAlign=top;aspect=fixed;align=center;pointerEvents=1;shape=mxgraph.cisco19.rect;prIcon=router;fillColor=#FAFAFA;strokeColor=#005073;" vertex="1" parent="1">
          <mxGeometry x="190" y="360" width="60" height="60" as="geometry" />
        </mxCell>
        <mxCell id="OmFl2OEedCDSADSCwGC_-14" value="h2" style="shape=mxgraph.cisco.computers_and_peripherals.pc;html=1;pointerEvents=1;dashed=0;fillColor=#036897;strokeColor=#ffffff;strokeWidth=2;verticalLabelPosition=bottom;verticalAlign=top;align=center;outlineConnect=0;" vertex="1" parent="1">
          <mxGeometry x="41" y="355" width="78" height="70" as="geometry" />
        </mxCell>
        <mxCell id="OmFl2OEedCDSADSCwGC_-15" style="rounded=0;orthogonalLoop=1;jettySize=auto;html=1;entryX=0.145;entryY=0.145;entryDx=0;entryDy=0;entryPerimeter=0;endArrow=none;endFill=0;exitX=0.83;exitY=0.5;exitDx=0;exitDy=0;exitPerimeter=0;" edge="1" parent="1" source="OmFl2OEedCDSADSCwGC_-2" target="OmFl2OEedCDSADSCwGC_-1">
          <mxGeometry relative="1" as="geometry" />
        </mxCell>
        <mxCell id="OmFl2OEedCDSADSCwGC_-18" value="h3&lt;span style=&quot;color: rgba(0, 0, 0, 0); font-family: monospace; font-size: 0px; text-align: start;&quot;&gt;%3CmxGraphModel%3E%3Croot%3E%3CmxCell%20id%3D%220%22%2F%3E%3CmxCell%20id%3D%221%22%20parent%3D%220%22%2F%3E%3CmxCell%20id%3D%222%22%20value%3D%22h2%22%20style%3D%22shape%3Dmxgraph.cisco.computers_and_peripherals.pc%3Bhtml%3D1%3BpointerEvents%3D1%3Bdashed%3D0%3BfillColor%3D%23036897%3BstrokeColor%3D%23ffffff%3BstrokeWidth%3D2%3BverticalLabelPosition%3Dbottom%3BverticalAlign%3Dtop%3Balign%3Dcenter%3BoutlineConnect%3D0%3B%22%20vertex%3D%221%22%20parent%3D%221%22%3E%3CmxGeometry%20x%3D%22250%22%20y%3D%22360%22%20width%3D%2278%22%20height%3D%2270%22%20as%3D%22geometry%22%2F%3E%3C%2FmxCell%3E%3C%2Froot%3E%3C%2FmxGraphModel%3E&lt;/span&gt;" style="shape=mxgraph.cisco.computers_and_peripherals.pc;html=1;pointerEvents=1;dashed=0;fillColor=#036897;strokeColor=#ffffff;strokeWidth=2;verticalLabelPosition=bottom;verticalAlign=top;align=center;outlineConnect=0;" vertex="1" parent="1">
          <mxGeometry x="670" y="245" width="78" height="70" as="geometry" />
        </mxCell>
        <mxCell id="OmFl2OEedCDSADSCwGC_-27" style="rounded=0;orthogonalLoop=1;jettySize=auto;html=1;endArrow=none;endFill=0;entryX=0.3;entryY=0.917;entryDx=0;entryDy=0;entryPerimeter=0;exitX=1;exitY=0.5;exitDx=0;exitDy=0;exitPerimeter=0;" edge="1" parent="1" source="OmFl2OEedCDSADSCwGC_-6" target="OmFl2OEedCDSADSCwGC_-5">
          <mxGeometry relative="1" as="geometry">
            <mxPoint x="240" y="410" as="sourcePoint" />
            <mxPoint x="370" y="330" as="targetPoint" />
          </mxGeometry>
        </mxCell>
        <mxCell id="OmFl2OEedCDSADSCwGC_-31" style="rounded=0;orthogonalLoop=1;jettySize=auto;html=1;entryX=0.145;entryY=0.145;entryDx=0;entryDy=0;entryPerimeter=0;endArrow=none;endFill=0;exitX=1;exitY=0.5;exitDx=0;exitDy=0;exitPerimeter=0;" edge="1" parent="1" source="OmFl2OEedCDSADSCwGC_-1" target="OmFl2OEedCDSADSCwGC_-5">
          <mxGeometry relative="1" as="geometry" />
        </mxCell>
        <mxCell id="OmFl2OEedCDSADSCwGC_-35" style="edgeStyle=orthogonalEdgeStyle;rounded=0;orthogonalLoop=1;jettySize=auto;html=1;entryX=0.16;entryY=0.5;entryDx=0;entryDy=0;entryPerimeter=0;endArrow=none;endFill=0;" edge="1" parent="1" source="OmFl2OEedCDSADSCwGC_-4" target="OmFl2OEedCDSADSCwGC_-18">
          <mxGeometry relative="1" as="geometry" />
        </mxCell>
        <mxCell id="OmFl2OEedCDSADSCwGC_-36" style="edgeStyle=orthogonalEdgeStyle;rounded=0;orthogonalLoop=1;jettySize=auto;html=1;entryX=0;entryY=0.5;entryDx=0;entryDy=0;entryPerimeter=0;endArrow=none;endFill=0;" edge="1" parent="1" source="OmFl2OEedCDSADSCwGC_-5" target="OmFl2OEedCDSADSCwGC_-4">
          <mxGeometry relative="1" as="geometry" />
        </mxCell>
        <mxCell id="OmFl2OEedCDSADSCwGC_-37" style="rounded=0;orthogonalLoop=1;jettySize=auto;html=1;entryX=0.145;entryY=0.855;entryDx=0;entryDy=0;entryPerimeter=0;endArrow=none;endFill=0;exitX=0.83;exitY=0.5;exitDx=0;exitDy=0;exitPerimeter=0;" edge="1" parent="1" source="OmFl2OEedCDSADSCwGC_-19" target="OmFl2OEedCDSADSCwGC_-1">
          <mxGeometry relative="1" as="geometry" />
        </mxCell>
        <mxCell id="OmFl2OEedCDSADSCwGC_-2" value="h4" style="shape=mxgraph.cisco.computers_and_peripherals.pc;html=1;pointerEvents=1;dashed=0;fillColor=#036897;strokeColor=#ffffff;strokeWidth=2;verticalLabelPosition=bottom;verticalAlign=top;align=center;outlineConnect=0;" vertex="1" parent="1">
          <mxGeometry x="41" y="85" width="78" height="70" as="geometry" />
        </mxCell>
        <mxCell id="OmFl2OEedCDSADSCwGC_-19" value="h1&lt;div&gt;&lt;br&gt;&lt;/div&gt;" style="shape=mxgraph.cisco.computers_and_peripherals.pc;html=1;pointerEvents=1;dashed=0;fillColor=#036897;strokeColor=#ffffff;strokeWidth=2;verticalLabelPosition=bottom;verticalAlign=top;align=center;outlineConnect=0;" vertex="1" parent="1">
          <mxGeometry x="41" y="214" width="78" height="70" as="geometry" />
        </mxCell>
        <mxCell id="OmFl2OEedCDSADSCwGC_-5" value="s3" style="sketch=0;points=[[0.5,0,0],[1,0.5,0],[0.5,1,0],[0,0.5,0],[0.145,0.145,0],[0.8555,0.145,0],[0.855,0.8555,0],[0.145,0.855,0]];verticalLabelPosition=bottom;html=1;verticalAlign=top;aspect=fixed;align=center;pointerEvents=1;shape=mxgraph.cisco19.rect;prIcon=router;fillColor=#FAFAFA;strokeColor=#005073;" vertex="1" parent="1">
          <mxGeometry x="354" y="250" width="60" height="60" as="geometry" />
        </mxCell>
        <mxCell id="OmFl2OEedCDSADSCwGC_-38" style="edgeStyle=orthogonalEdgeStyle;rounded=0;orthogonalLoop=1;jettySize=auto;html=1;entryX=0;entryY=0.5;entryDx=0;entryDy=0;entryPerimeter=0;exitX=0.83;exitY=0.5;exitDx=0;exitDy=0;exitPerimeter=0;endArrow=none;endFill=0;" edge="1" parent="1" source="OmFl2OEedCDSADSCwGC_-14" target="OmFl2OEedCDSADSCwGC_-6">
          <mxGeometry relative="1" as="geometry" />
        </mxCell>
        <mxCell id="OmFl2OEedCDSADSCwGC_-34" value="" style="shape=image;html=1;verticalAlign=top;verticalLabelPosition=bottom;labelBackgroundColor=#ffffff;imageAspect=0;aspect=fixed;image=https://icons.diagrams.net/icon-cache1/Woothemes_Ultimate_Icon_Set-2035/intruder-714.png" vertex="1" parent="1">
          <mxGeometry x="80" y="245" width="39" height="39" as="geometry" />
        </mxCell>
        <mxCell id="OmFl2OEedCDSADSCwGC_-40" value="&lt;b&gt;C&lt;/b&gt;" style="text;html=1;align=center;verticalAlign=middle;resizable=0;points=[];autosize=1;strokeColor=none;fillColor=none;" vertex="1" parent="1">
          <mxGeometry x="399" y="30" width="30" height="30" as="geometry" />
        </mxCell>
        <mxCell id="OmFl2OEedCDSADSCwGC_-41" style="rounded=0;orthogonalLoop=1;jettySize=auto;html=1;entryX=0.8555;entryY=0.145;entryDx=0;entryDy=0;entryPerimeter=0;endArrow=none;endFill=0;dashed=1;" edge="1" parent="1" source="OmFl2OEedCDSADSCwGC_-3" target="OmFl2OEedCDSADSCwGC_-1">
          <mxGeometry relative="1" as="geometry" />
        </mxCell>
        <mxCell id="OmFl2OEedCDSADSCwGC_-42" style="edgeStyle=orthogonalEdgeStyle;rounded=0;orthogonalLoop=1;jettySize=auto;html=1;entryX=0.5;entryY=0;entryDx=0;entryDy=0;entryPerimeter=0;endArrow=none;endFill=0;dashed=1;" edge="1" parent="1" source="OmFl2OEedCDSADSCwGC_-3" target="OmFl2OEedCDSADSCwGC_-5">
          <mxGeometry relative="1" as="geometry" />
        </mxCell>
        <mxCell id="OmFl2OEedCDSADSCwGC_-43" style="rounded=0;orthogonalLoop=1;jettySize=auto;html=1;entryX=0.145;entryY=0.145;entryDx=0;entryDy=0;entryPerimeter=0;endArrow=none;endFill=0;dashed=1;exitX=0.84;exitY=0.813;exitDx=0;exitDy=0;exitPerimeter=0;" edge="1" parent="1" source="OmFl2OEedCDSADSCwGC_-3" target="OmFl2OEedCDSADSCwGC_-4">
          <mxGeometry relative="1" as="geometry" />
        </mxCell>
        <mxCell id="OmFl2OEedCDSADSCwGC_-44" style="rounded=0;orthogonalLoop=1;jettySize=auto;html=1;entryX=0.8555;entryY=0.145;entryDx=0;entryDy=0;entryPerimeter=0;dashed=1;endArrow=none;endFill=0;" edge="1" parent="1" source="OmFl2OEedCDSADSCwGC_-3" target="OmFl2OEedCDSADSCwGC_-6">
          <mxGeometry relative="1" as="geometry" />
        </mxCell>
      </root>
    </mxGraphModel>
  </diagram>
</mxfile>
